<svg id="Logos" xmlns="http://www.w3.org/2000/svg" xmlns:xlink="http://www.w3.org/1999/xlink" width="749.49" height="150" viewBox="0 0 749.49 150"><defs><style>.cls-1{fill:#253858;}.cls-2{fill:url(#linear-gradient);}.cls-3{fill:#2684ff;}</style><linearGradient id="linear-gradient" x1="2.4" y1="111.16" x2="11.23" y2="137.3" gradientTransform="translate(40.46 -44.55) rotate(0.35)" gradientUnits="userSpaceOnUse"><stop offset="0" stop-color="#0052cc"/><stop offset="1" stop-color="#2684ff"/></linearGradient></defs><title>jira service desk-logo-gradient-blue</title><path class="cls-1" d="M109.87,42.64h7.92V82.85c0,10.65-4.66,18-15.57,18a28.19,28.19,0,0,1-9.51-1.5V91.65a22.19,22.19,0,0,0,8.19,1.5c6.69,0,9-4.05,9-9.77Z"/><path class="cls-1" d="M132.23,39.56a4.94,4.94,0,0,1,5.28,5.28,5.28,5.28,0,0,1-10.56,0A4.94,4.94,0,0,1,132.23,39.56Zm-3.88,16.89h7.57v44h-7.57Z"/><path class="cls-1" d="M154.75,100.45h-7.39v-44h7.39V64.2c2.55-5.19,6.95-8.89,15.58-8.36v7.39c-9.68-1-15.58,1.94-15.58,11.26Z"/><path class="cls-1" d="M205.79,92.53c-2.81,5.81-8.09,8.8-14.87,8.8-11.7,0-17.6-9.94-17.6-22.88,0-12.4,6.16-22.88,18.48-22.88,6.42,0,11.35,2.91,14,8.63V56.45h7.57v44h-7.57Zm-12.85,1.76c6.78,0,12.85-4.31,12.85-14.08V76.69c0-9.76-5.54-14.08-12-14.08-8.53,0-12.93,5.64-12.93,15.84C180.89,89,185.11,94.29,192.94,94.29Z"/><path class="cls-1" d="M258.15,101.33c-11.17,0-16.37-2.2-20.85-4.48v-8.1c5.36,2.82,13.64,4.84,21.29,4.84,8.71,0,12-3.43,12-8.54s-3.17-7.83-14.17-10.47c-13-3.17-18.83-7.65-18.83-17.16,0-9,6.86-15.66,20.33-15.66,8.36,0,13.72,2,17.68,4.22V53.9a35.52,35.52,0,0,0-18-4.4c-7.57,0-12.06,2.64-12.06,7.92,0,4.75,3.7,7.13,13.9,9.68,12.23,3.08,19.1,7,19.1,17.43C278.48,94.56,272.49,101.33,258.15,101.33Z"/><path class="cls-1" d="M308.84,101.33c-16.46,0-23.67-9.5-23.67-23,0-13.29,7.39-22.8,20.76-22.8,13.56,0,19,9.42,19,22.8V81.8H292.82c1.06,7.48,5.9,12.32,16.28,12.32a38.94,38.94,0,0,0,13.38-2.38v7C318.87,100.63,313.33,101.33,308.84,101.33Zm-16.11-26h24.56c-.44-8.19-4.14-12.85-11.71-12.85C297.57,62.44,293.53,67.63,292.73,75.29Z"/><path class="cls-1" d="M341.31,100.45h-7.39v-44h7.39V64.2c2.55-5.19,6.95-8.89,15.58-8.36v7.39c-9.68-1-15.58,1.94-15.58,11.26Z"/><path class="cls-1" d="M375.54,100.45l-17.07-44h7.92L380.64,94l14.17-37.58h7.92l-17.07,44Z"/><path class="cls-1" d="M413.12,39.56a4.94,4.94,0,0,1,5.28,5.28,5.28,5.28,0,1,1-10.56,0A4.94,4.94,0,0,1,413.12,39.56Zm-3.88,16.89h7.57v44h-7.57Z"/><path class="cls-1" d="M459.31,99.31c-2.64,1.41-6.68,2-10.73,2-15.66,0-23-9.5-23-23,0-13.29,7.31-22.8,23-22.8a23.17,23.17,0,0,1,10.47,2.12v7a22.19,22.19,0,0,0-9.94-2.12c-11.44,0-16.11,7.22-16.11,15.76s4.76,15.75,16.28,15.75a27.68,27.68,0,0,0,10-1.59Z"/><path class="cls-1" d="M489,101.33c-16.46,0-23.67-9.5-23.67-23,0-13.29,7.39-22.8,20.77-22.8,13.55,0,19,9.42,19,22.8V81.8H473c1.06,7.48,5.9,12.32,16.28,12.32a38.94,38.94,0,0,0,13.38-2.38v7C499,100.63,493.46,101.33,489,101.33Zm-16.1-26h24.55c-.44-8.19-4.14-12.85-11.71-12.85C477.71,62.44,473.66,67.63,472.87,75.29Z"/><path class="cls-1" d="M531.12,42.64h21.3c18.74,0,27.8,11.7,27.8,29,0,17.51-9.15,28.77-27.8,28.77h-21.3ZM539,50.21V92.89h13.47c13.19,0,19.79-7,19.79-21s-6.24-21.73-20.24-21.73Z"/><path class="cls-1" d="M610.5,101.33c-16.46,0-23.68-9.5-23.68-23,0-13.29,7.4-22.8,20.77-22.8,13.55,0,19,9.42,19,22.8V81.8H594.48c1.06,7.48,5.9,12.32,16.28,12.32a39,39,0,0,0,13.38-2.38v7C620.53,100.63,615,101.33,610.5,101.33Zm-16.11-26h24.55c-.44-8.19-4.13-12.85-11.7-12.85C599.23,62.44,595.18,67.63,594.39,75.29Z"/><path class="cls-1" d="M649.39,101.33a33.89,33.89,0,0,1-15.31-3.25v-8a34.37,34.37,0,0,0,15.66,4.31c5.81,0,8.8-2.37,8.8-5.81s-2.55-5.28-10.91-7.3c-9.77-2.38-13.9-6.16-13.9-13.38,0-7.65,5.89-12.32,15.93-12.32a31.19,31.19,0,0,1,14.16,3.17v7.83c-5.28-2.64-9.59-4-14.25-4-5.55,0-8.54,1.93-8.54,5.36,0,3.08,2.11,5,10.21,7,9.77,2.37,14.69,6,14.69,13.64C665.93,95.79,661.18,101.33,649.39,101.33Z"/><path class="cls-1" d="M674.65,100.45V38.06h7.56v39l18.92-20.6H711L690.31,78.1l21.56,22.35h-10.3L682.21,79.86v20.59Z"/><path class="cls-2" d="M43,63.57l20.61.13a3.22,3.22,0,0,1,2.55,5.15L35.74,109.41a21.61,21.61,0,0,1-4.37-30.25Z"/><path class="cls-3" d="M31.35,79.16,10.86,79A3.2,3.2,0,0,1,8.31,73.9L38.43,33.65a21.63,21.63,0,0,1,4.38,30.26Z"/></svg>