<?xml version="1.0" encoding="UTF-8" standalone="no"?>
<svg
   xmlns:dc="http://purl.org/dc/elements/1.1/"
   xmlns:cc="http://creativecommons.org/ns#"
   xmlns:rdf="http://www.w3.org/1999/02/22-rdf-syntax-ns#"
   xmlns:svg="http://www.w3.org/2000/svg"
   xmlns="http://www.w3.org/2000/svg"
   xmlns:xlink="http://www.w3.org/1999/xlink"
   xmlns:sodipodi="http://sodipodi.sourceforge.net/DTD/sodipodi-0.dtd"
   xmlns:inkscape="http://www.inkscape.org/namespaces/inkscape"
   viewBox="0 0 28800 24480"
   version="1.1"
   id="svg4"
   sodipodi:docname="logo.svg"
   width="144"
   height="144"
   inkscape:version="0.92.4 (unknown)">
  <metadata
     id="metadata10">
    <rdf:RDF>
      <cc:Work
         rdf:about="">
        <dc:format>image/svg+xml</dc:format>
        <dc:type
           rdf:resource="http://purl.org/dc/dcmitype/StillImage" />
        <dc:title></dc:title>
      </cc:Work>
    </rdf:RDF>
  </metadata>
  <defs
     id="defs8">
    <linearGradient
       id="linearGradient4760">
      <stop
         style="stop-color:#a64dff;stop-opacity:1"
         offset="0"
         id="stop4756" />
      <stop
         id="stop4774"
         offset="0.22228137"
         style="stop-color:#0000ff;stop-opacity:1" />
      <stop
         id="stop4772"
         offset="0.3322719"
         style="stop-color:#00ffff;stop-opacity:1" />
      <stop
         id="stop4770"
         offset="0.47978443"
         style="stop-color:#00ff00;stop-opacity:1" />
      <stop
         id="stop4766"
         offset="0.63065863"
         style="stop-color:#ffff00;stop-opacity:1" />
      <stop
         style="stop-color:#ff8000;stop-opacity:1"
         offset="0.86064303"
         id="stop4768" />
      <stop
         style="stop-color:#ff0000;stop-opacity:1"
         offset="1"
         id="stop4758" />
    </linearGradient>
    <linearGradient
       inkscape:collect="always"
       xlink:href="#linearGradient4760"
       id="linearGradient4762"
       x1="6200"
       y1="19640"
       x2="22200"
       y2="19640"
       gradientUnits="userSpaceOnUse"
       gradientTransform="matrix(0.92500009,0,0,1,1264.9996,0)" />
  </defs>
  <sodipodi:namedview
     pagecolor="#ffffff"
     bordercolor="#666666"
     borderopacity="1"
     objecttolerance="10"
     gridtolerance="10"
     guidetolerance="10"
     inkscape:pageopacity="0"
     inkscape:pageshadow="2"
     inkscape:window-width="2560"
     inkscape:window-height="1050"
     id="namedview6"
     showgrid="false"
     inkscape:zoom="3.77"
     inkscape:cx="66.922695"
     inkscape:cy="64.87642"
     inkscape:window-x="0"
     inkscape:window-y="0"
     inkscape:window-maximized="1"
     inkscape:current-layer="svg4"
     units="px" />
  <rect
     style="opacity:1;fill:url(#linearGradient4762);fill-opacity:1;stroke-width:133.78529358"
     id="rect4722"
     width="14800"
     height="4000"
     x="7000"
     y="17640"
     ry="2000"
     rx="54.814816"
     inkscape:label="light" />
  <path
     d="M 8598.1001,18635 H 7692 v 1186.9 h 906.1001 c 217.1,0 379.6,-52 491.4,-158.6 110.4999,-104 166.3999,-249.6 166.3999,-432.9 0,-183.3 -55.9,-330.2 -166.3999,-435.5 -111.8,-104 -275.6001,-156 -491.4,-156 m 3837.5999,832 c 39,-68.9 61.1,-156 61.1,-265.2 0,-175.5 -58.5,-312 -178.099,-416 -119.601,-98.8 -278.201,-149.5 -474.501,-149.5 H 10877 v 1107.6 h 951.6 c 293.8,0 496.6,-91 607.1,-273 M 14400,1540 1400,23640 H 27400 L 14400,1540 M 9311.8,19873.9 c -168.9999,158.6 -402.9999,239.2 -692.9,239.2 H 7692 v 981.5 h -311.9999 v -2756 H 8618.9 c 291.2001,0 522.6001,81.9 694.2,243.1 169,159.9 254.8,374.4 254.8,643.5 0,273 -85.8,487.5 -256.1,647.4 m 3185,1222 -663,-1058.2 h -958.1 V 21092 h -312 v -2756 h 1318.2 c 279.5,0 504.4,78 673.4,234 169,153.4 253.5,364 253.5,629.2 0,343.2 -143,577.2 -429,702 -78,36.4 -158.6,65 -236.6,78 l 724.1,1112.8 h -370.5 m 1745.901,0 H 13930.7 v -2756 h 312.001 v 2756 m 3062.799,-171.6 c -192.4,136.5 -458.9,204.1 -800.8,204.1 -384.8,0 -679.9,-78 -881.4,-240.5 -181.999,-143 -283.4,-351 -308.1,-616.2 h 325 c 10.4,188.5 101.4,332.8 273,432.9 150.8,87.1 348.4,130 595.4,130 516.101,0 773.5,-162.5 773.5,-486.2 0,-111.8 -45.5,-198.9 -139.1,-262.6 -90.999,-65 -207.999,-117 -348.4,-156 -139.1,-42.9 -291.2,-81.9 -452.4,-117 -161.2,-35.1 -312,-84.5 -455,-140.4 -143,-55.9 -256.1,-132.6 -348.4,-224.9 -91,-93.6 -139.1,-218.4 -139.1,-377 0,-224.9 84.5,-406.9 256.101,-548.6 171.599,-140.4 431.599,-210.6 779.999,-210.6 347.101,0 617.5,78 809.9,240.5 174.2,143 266.5,325 278.2,546 h -319.799 c -28.601,-228.8 -175.501,-379.6 -442.001,-455 -93.6,-26 -210.6,-39 -351,-39 -140.4,0 -257.4,13 -353.6,45.5 -96.2,32.5 -168.999,71.5 -221,117 -54.6,45.5 -90.999,96.2 -107.9,152.1 -16.9,55.9 -26,114.4 -26,176.8 0,65 26,120.9 80.6,172.9 54.6,52 124.8,97.5 214.5,133.9 88.4,36.4 189.8,67.6 302.901,94.9 114.399,26 230.099,55.9 347.099,84.5 117.001,28.6 234.001,62.4 348.4,100.1 113.1,39 214.5,84.5 302.9,143 198.9,124.8 296.4,295.1 296.4,512.2 0,260 -96.199,455 -288.6,591.5 m 3749.2,171.6 v -2280.2 l -1019.2,1310.4 -1036.1,-1310.4 v 2280.2 H 18690 v -2756 h 361.4 l 985.4,1307.8 968.501,-1306.5 h 363.999 v 2756 h -312"
     id="path2"
     style="opacity:1;fill:#000000;fill-opacity:1;stroke-width:130"
     inkscape:connector-curvature="0"
     inkscape:label="prism" />
</svg>
