<svg xmlns="http://www.w3.org/2000/svg" xmlns:xlink="http://www.w3.org/1999/xlink" viewBox="0 0 1080 150"><defs><style>.cls-1{fill:url(#linear-gradient);}.cls-2{fill:#2684ff;}.cls-3{fill:#0052cc;}.cls-4{fill:#253858;}</style><linearGradient id="linear-gradient" x1="28.54" y1="69.85" x2="11.4" y2="99.52" gradientUnits="userSpaceOnUse"><stop offset="0" stop-color="#0052cc"/><stop offset="0.92" stop-color="#2684ff"/></linearGradient></defs><title>marketplace-gradient-blue</title><g id="Logos"><path class="cls-1" d="M19.64,64.84a1.88,1.88,0,0,0-3.2.35L.21,97.64a1.94,1.94,0,0,0,1.73,2.81h22.6a1.88,1.88,0,0,0,1.74-1.07C31.15,89.3,28.2,74,19.64,64.84Z"/><path class="cls-2" d="M31.55,35.32a42.79,42.79,0,0,0-2.5,42.26l10.89,21.8a2,2,0,0,0,1.74,1.07h22.6A1.94,1.94,0,0,0,66,97.64L34.85,35.31A1.83,1.83,0,0,0,31.55,35.32Z"/><polygon class="cls-3" points="492.5 46.01 492.5 100.45 504.1 100.45 504.1 58.94 508.99 69.96 525.39 100.45 539.98 100.45 539.98 46.01 528.38 46.01 528.38 81.14 523.98 70.95 510.81 46.01 492.5 46.01"/><rect class="cls-3" x="406.04" y="46.01" width="12.68" height="54.44"/><path class="cls-3" d="M391.41,84.38c0-9.53-5.05-14-19.3-17.07-7.87-1.74-9.78-3.48-9.78-6,0-3.15,2.82-4.47,8-4.47,6.29,0,12.51,1.9,18.39,4.55V48.91a41.57,41.57,0,0,0-18-3.73c-14.08,0-21.38,6.14-21.38,16.16,0,8,3.73,14.42,18.32,17.24,8.7,1.82,10.52,3.23,10.52,6.13s-1.82,4.64-8,4.64a44.92,44.92,0,0,1-21.12-5.72V96.72c4.39,2.16,10.19,4.56,21,4.56,15.24,0,21.29-6.8,21.29-16.9"/><path class="cls-3" d="M338.64,84.38c0-9.53-5.06-14-19.31-17.07-7.87-1.74-9.77-3.48-9.77-6,0-3.15,2.81-4.47,8-4.47,6.3,0,12.51,1.9,18.4,4.55V48.91a41.64,41.64,0,0,0-18-3.73c-14.09,0-21.38,6.14-21.38,16.16,0,8,3.73,14.42,18.31,17.24,8.7,1.82,10.52,3.23,10.52,6.13s-1.82,4.64-7.95,4.64a44.93,44.93,0,0,1-21.13-5.72V96.72c4.39,2.16,10.19,4.56,21,4.56,15.25,0,21.3-6.8,21.3-16.9"/><polygon class="cls-3" points="198.15 46.01 198.15 100.45 224.21 100.45 228.31 88.68 210.91 88.68 210.91 46.01 198.15 46.01"/><polygon class="cls-3" points="146.67 46.01 146.67 57.78 160.75 57.78 160.75 100.45 173.51 100.45 173.51 57.78 188.59 57.78 188.59 46.01 146.67 46.01"/><path class="cls-3" d="M128.16,46H111.44l-19,54.44H107l2.69-9.17a36,36,0,0,0,20.3,0l2.7,9.17h14.5ZM119.8,81.47a25,25,0,0,1-7-1l7-23.77,7,23.77A25.05,25.05,0,0,1,119.8,81.47Z"/><path class="cls-3" d="M269.13,46H252.4l-19,54.44h14.5l2.69-9.17a36,36,0,0,0,20.31,0l2.69,9.17h14.5Zm-8.36,35.46a25.05,25.05,0,0,1-7-1l7-23.77,7,23.77A25,25,0,0,1,260.77,81.47Z"/><path class="cls-3" d="M464.4,46H447.68l-19,54.44h14.5l2.69-9.17a36,36,0,0,0,20.3,0l2.69,9.17h14.5ZM456,81.47a25.16,25.16,0,0,1-7-1l7-23.77,7,23.77A25.16,25.16,0,0,1,456,81.47Z"/><path class="cls-4" d="M582.54,46.76v53.68h-8V42h13.89l13.26,33.56,5.43,16.11,5.43-16.11L625.9,42h12.9v58.48h-8v-53l-6.85,21.09-12.91,32h-7.74l-12.73-32Z"/><path class="cls-4" d="M681.8,92.43c-2.85,5.88-8.19,8.9-15,8.9-11.84,0-17.8-10.06-17.8-23.14C649,65.64,655.18,55,667.64,55c6.5,0,11.49,2.94,14.16,8.73V55.93h7.65v44.51H681.8Zm-13,1.78c6.85,0,13-4.36,13-14.24V76.41c0-9.88-5.61-14.25-12.11-14.25-8.63,0-13.09,5.7-13.09,16C656.6,88.87,660.88,94.21,668.8,94.21Z"/><path class="cls-4" d="M708.5,100.44H701V55.93h7.48v7.84c2.58-5.26,7-9,15.76-8.46v7.48c-9.8-1-15.76,2-15.76,11.39Z"/><path class="cls-4" d="M730.84,100.44V37.33h7.66V76.76l19.13-20.83h10l-20.91,21.9,21.8,22.61H758.08L738.5,79.61v20.83Z"/><path class="cls-4" d="M793.86,101.33c-16.64,0-23.94-9.61-23.94-23.23,0-13.44,7.47-23.06,21-23.06,13.71,0,19.23,9.53,19.23,23.06v3.47H777.66c1.07,7.57,6,12.46,16.47,12.46a39.57,39.57,0,0,0,13.53-2.4v7C804,100.62,798.4,101.33,793.86,101.33ZM777.57,75h24.84c-.45-8.28-4.19-13-11.84-13C782.47,62,778.37,67.24,777.57,75Z"/><path class="cls-4" d="M836.85,93.23a24.06,24.06,0,0,0,4.81-.62V100a18.59,18.59,0,0,1-5.16.71c-9.53,0-14.16-5.61-14.16-13.89V63.05h-7.21V55.93h7.21V46.5h7.48v9.43h11.84v7.12H829.82V86.64C829.82,90.56,832.14,93.23,836.85,93.23Z"/><path class="cls-4" d="M859.11,92.61V117.8h-7.66V55.93h7.66v8c2.85-5.87,8.19-8.9,15-8.9C886,55,892,65.1,892,78.19c0,12.55-6.23,23.14-18.69,23.14C866.76,101.33,861.78,98.4,859.11,92.61Zm13-30.45c-6.85,0-13,4.37-13,14.25V80c0,9.88,5.6,14.24,12.1,14.24,8.64,0,13.09-5.7,13.09-16C884.3,67.51,880,62.16,872.1,62.16Z"/><path class="cls-4" d="M912.78,100.71c-7.3,0-11.93-3.47-11.93-11.66V37.33h7.66V88.16c0,4,2.67,5.43,6,5.43a19.24,19.24,0,0,0,2.23-.09v6.85A16.1,16.1,0,0,1,912.78,100.71Z"/><path class="cls-4" d="M953.82,92.43c-2.85,5.88-8.19,8.9-15.05,8.9-11.84,0-17.8-10.06-17.8-23.14C921,65.64,927.2,55,939.66,55c6.5,0,11.49,2.94,14.16,8.73V55.93h7.65v44.51h-7.65Zm-13,1.78c6.86,0,13-4.36,13-14.24V76.41c0-9.88-5.61-14.25-12.11-14.25-8.63,0-13.08,5.7-13.08,16C928.63,88.87,932.9,94.21,940.82,94.21Z"/><path class="cls-4" d="M1004.47,99.29c-2.67,1.42-6.77,2-10.86,2-15.85,0-23.24-9.61-23.24-23.23,0-13.44,7.39-23.06,23.24-23.06a23.56,23.56,0,0,1,10.59,2.14V64.3a22.53,22.53,0,0,0-10.06-2.14c-11.57,0-16.29,7.3-16.29,15.94S982.66,94,994.32,94a28.12,28.12,0,0,0,10.15-1.6Z"/><path class="cls-4" d="M1034.46,101.33c-16.64,0-23.94-9.61-23.94-23.23,0-13.44,7.47-23.06,21-23.06,13.71,0,19.23,9.53,19.23,23.06v3.47h-32.49c1.07,7.57,6,12.46,16.47,12.46a39.53,39.53,0,0,0,13.53-2.4v7C1044.61,100.62,1039,101.33,1034.46,101.33ZM1018.17,75H1043c-.45-8.28-4.19-13-11.84-13C1023.07,62,1019,67.24,1018.17,75Z"/></g></svg>